<svg width="680" viewBox="0 0 680 580" xmlns="http://www.w3.org/2000/svg" style="background:#ffffff;font-family:sans-serif">
<defs>
<marker id="arrow" viewBox="0 0 10 10" refX="8" refY="5" markerWidth="6" markerHeight="6" orient="auto-start-reverse">
<path d="M2 1L8 5L2 9" fill="none" stroke="#888780" stroke-width="1.5" stroke-linecap="round" stroke-linejoin="round"/>
</marker>
</defs>

<!-- Row 1: Sources -->
<rect x="30" y="30" width="130" height="40" rx="8" fill="#F1EFE8" stroke="#B4B2A9" stroke-width="0.5"/>
<text font-size="14" font-weight="500" fill="#2C2C2A" x="95" y="50" text-anchor="middle" dominant-baseline="central">Reddit</text>

<!-- Notification API -->
<rect x="468" y="30" width="182" height="40" rx="8" fill="#EEEDFE" stroke="#AFA9EC" stroke-width="0.5"/>
<text font-size="14" font-weight="500" fill="#26215C" x="559" y="50" text-anchor="middle" dominant-baseline="central">Notification API</text>

<!-- Row 2: Poller + flip -->
<rect x="30" y="118" width="160" height="52" rx="8" fill="#F1EFE8" stroke="#B4B2A9" stroke-width="0.5"/>
<text font-size="14" font-weight="500" fill="#2C2C2A" x="110" y="136" text-anchor="middle" dominant-baseline="central">reddit-poller.js</text>
<text font-size="12" fill="#5F5E5A" x="110" y="154" text-anchor="middle" dominant-baseline="central">score + save</text>

<rect x="258" y="118" width="140" height="52" rx="8" fill="#E1F5EE" stroke="#5DCAA5" stroke-width="0.5"/>
<text font-size="14" font-weight="500" fill="#04342C" x="328" y="136" text-anchor="middle" dominant-baseline="central">flip.js</text>
<text font-size="12" fill="#0F6E56" x="328" y="154" text-anchor="middle" dominant-baseline="central">flip value lookup</text>

<!-- Row 3: Adapter -->
<rect x="258" y="220" width="140" height="52" rx="8" fill="#FAECE7" stroke="#F0997B" stroke-width="0.5"/>
<text font-size="14" font-weight="500" fill="#4A1B0C" x="328" y="238" text-anchor="middle" dominant-baseline="central">lib/pricing.js</text>
<text font-size="12" fill="#993C1D" x="328" y="256" text-anchor="middle" dominant-baseline="central">provider adapter</text>

<!-- Path A box -->
<rect x="30" y="320" width="188" height="150" rx="10" fill="none" stroke="#B4B2A9" stroke-width="1" stroke-dasharray="6 3"/>
<text font-size="12" fill="#5F5E5A" x="48" y="333" dominant-baseline="central">Path A — eBay APIs</text>

<rect x="44" y="344" width="160" height="30" rx="6" fill="#EEEDFE" stroke="#AFA9EC" stroke-width="0.5"/>
<text font-size="14" font-weight="500" fill="#26215C" x="124" y="359" text-anchor="middle" dominant-baseline="central">Browse API</text>

<rect x="44" y="384" width="160" height="30" rx="6" fill="#EEEDFE" stroke="#AFA9EC" stroke-width="0.5"/>
<text font-size="14" font-weight="500" fill="#26215C" x="124" y="399" text-anchor="middle" dominant-baseline="central">Insights API</text>

<rect x="44" y="424" width="160" height="30" rx="6" fill="#EEEDFE" stroke="#AFA9EC" stroke-width="0.5"/>
<text font-size="14" font-weight="500" fill="#26215C" x="124" y="439" text-anchor="middle" dominant-baseline="central">Taxonomy API</text>

<!-- Path B box -->
<rect x="252" y="320" width="396" height="150" rx="10" fill="none" stroke="#B4B2A9" stroke-width="1" stroke-dasharray="6 3"/>
<text font-size="12" fill="#5F5E5A" x="270" y="333" dominant-baseline="central">Path B — No eBay access</text>

<rect x="268" y="344" width="172" height="52" rx="6" fill="#FAEEDA" stroke="#FAC775" stroke-width="0.5"/>
<text font-size="14" font-weight="500" fill="#412402" x="354" y="362" text-anchor="middle" dominant-baseline="central">Oxylabs scraper</text>
<text font-size="12" fill="#854F0B" x="354" y="380" text-anchor="middle" dominant-baseline="central">active listings + alerts</text>

<rect x="460" y="344" width="172" height="52" rx="6" fill="#FAEEDA" stroke="#FAC775" stroke-width="0.5"/>
<text font-size="14" font-weight="500" fill="#412402" x="546" y="362" text-anchor="middle" dominant-baseline="central">PriceCharting API</text>
<text font-size="12" fill="#854F0B" x="546" y="380" text-anchor="middle" dominant-baseline="central">sold history + market value</text>

<rect x="360" y="412" width="172" height="30" rx="6" fill="#E6F1FB" stroke="#85B7EB" stroke-width="0.5"/>
<text font-size="14" font-weight="500" fill="#042C53" x="446" y="427" text-anchor="middle" dominant-baseline="central">Bright Data (scale-up)</text>

<!-- Row 5: Outputs -->
<rect x="30" y="510" width="160" height="40" rx="8" fill="#E6F1FB" stroke="#85B7EB" stroke-width="0.5"/>
<text font-size="14" font-weight="500" fill="#042C53" x="110" y="530" text-anchor="middle" dominant-baseline="central">Neon DB (Prisma)</text>

<rect x="220" y="510" width="110" height="40" rx="8" fill="#EAF3DE" stroke="#97C459" stroke-width="0.5"/>
<text font-size="14" font-weight="500" fill="#173404" x="275" y="530" text-anchor="middle" dominant-baseline="central">Dashboard</text>

<rect x="350" y="510" width="110" height="40" rx="8" fill="#EAF3DE" stroke="#97C459" stroke-width="0.5"/>
<text font-size="14" font-weight="500" fill="#173404" x="405" y="530" text-anchor="middle" dominant-baseline="central">Discord</text>

<!-- ARROWS -->
<line x1="95" y1="70" x2="95" y2="118" stroke="#888780" stroke-width="1" marker-end="url(#arrow)" fill="none"/>
<line x1="190" y1="144" x2="258" y2="144" stroke="#888780" stroke-width="1" marker-end="url(#arrow)" fill="none"/>
<text font-size="12" fill="#5F5E5A" x="224" y="133" text-anchor="middle">if isLocal</text>
<line x1="328" y1="170" x2="328" y2="220" stroke="#888780" stroke-width="1" marker-end="url(#arrow)" fill="none"/>
<path d="M258,260 L124,260 L124,320" fill="none" stroke="#888780" stroke-width="1" marker-end="url(#arrow)"/>
<path d="M398,260 L450,260 L450,320" fill="none" stroke="#888780" stroke-width="1" marker-end="url(#arrow)"/>
<path d="M124,470 L124,494 L110,494 L110,510" fill="none" stroke="#888780" stroke-width="1" marker-end="url(#arrow)"/>
<path d="M354,470 L354,494 L110,494" fill="none" stroke="#888780" stroke-width="1" marker-end="url(#arrow)"/>
<path d="M60,170 L30,170 L30,530 L30,510" fill="none" stroke="#888780" stroke-width="1" marker-end="url(#arrow)"/>
<line x1="190" y1="530" x2="220" y2="530" stroke="#888780" stroke-width="1" marker-end="url(#arrow)" fill="none"/>
<path d="M190,540 L344,540 L344,530 L350,530" fill="none" stroke="#888780" stroke-width="1" marker-end="url(#arrow)"/>

<!-- Legend -->
<rect x="30" y="556" width="10" height="10" rx="2" fill="#E1F5EE" stroke="#5DCAA5" stroke-width="0.5"/>
<text font-size="12" fill="#5F5E5A" x="46" y="561" dominant-baseline="central">New module</text>
<rect x="140" y="556" width="10" height="10" rx="2" fill="#FAECE7" stroke="#F0997B" stroke-width="0.5"/>
<text font-size="12" fill="#5F5E5A" x="156" y="561" dominant-baseline="central">Adapter layer</text>
<rect x="260" y="556" width="10" height="10" rx="2" fill="#EEEDFE" stroke="#AFA9EC" stroke-width="0.5"/>
<text font-size="12" fill="#5F5E5A" x="276" y="561" dominant-baseline="central">Path A (eBay APIs)</text>
<rect x="410" y="556" width="10" height="10" rx="2" fill="#FAEEDA" stroke="#FAC775" stroke-width="0.5"/>
<text font-size="12" fill="#5F5E5A" x="426" y="561" dominant-baseline="central">Path B (alternative)</text>
</svg>
